HIERARCHY
ROOT root
{
	OFFSET	0	13.1	24.9
	CHANNELS 6  Xposition Yposition Zposition Xrotation Yrotation Zrotation
	JOINT spine_1
	{
		OFFSET	0	9.99999	0
		CHANNELS 3  Xrotation Yrotation Zrotation
		JOINT spine_2
		{
			OFFSET	0	112	-10
			CHANNELS 3  Xrotation Yrotation Zrotation
			JOINT spine_3
			{
				OFFSET	0	206.5	19.3
				CHANNELS 3  Xrotation Yrotation Zrotation
				JOINT spine_4
				{
					OFFSET	0	110.4	14.6
					CHANNELS 3  Xrotation Yrotation Zrotation
					JOINT neck_1
					{
						OFFSET	0	71.8	-50.3
						CHANNELS 3  Xrotation Yrotation Zrotation
						JOINT neck_2
						{
							OFFSET	0	86.2	-25.8
							CHANNELS 3  Xrotation Yrotation Zrotation
							JOINT head_ee
							{
								OFFSET	0	179.8	-8.7
								CHANNELS 3  Xrotation Yrotation Zrotation
								End Site
								{
									OFFSET	1	0	0
								}
							}
						}
					}
					JOINT left_clavicle
					{
						OFFSET	-43.2	22.4	-70.8
						CHANNELS 3  Xrotation Yrotation Zrotation
						JOINT left_shoulder
						{
							OFFSET	-93.9	-5.79999	48.7
							CHANNELS 3  Xrotation Yrotation Zrotation
							JOINT left_elbow
							{
								OFFSET	-291.4	-30.8	15.2
								CHANNELS 3  Xrotation Yrotation Zrotation
								JOINT left_lowarm_twist
								{
									OFFSET	-110.7	-3.89999	13.6
									CHANNELS 3  Xrotation Yrotation Zrotation
									JOINT left_hand
									{
										OFFSET	-110.7	-3.89999	13.6
										CHANNELS 3  Xrotation Yrotation Zrotation
										JOINT left_ee
										{
											OFFSET	-80.8	-5.10001	12.1
											CHANNELS 3  Xrotation Yrotation Zrotation
											End Site
											{
												OFFSET	1	0	0
											}
										}
									}
								}
							}
						}
					}
					JOINT right_clavicle
					{
						OFFSET	43.2	22.4	-70.8
						CHANNELS 3  Xrotation Yrotation Zrotation
						JOINT right_shoulder
						{
							OFFSET	93.9	-5.79999	48.7
							CHANNELS 3  Xrotation Yrotation Zrotation
							JOINT right_elbow
							{
								OFFSET	291.4	-30.8	15.2
								CHANNELS 3  Xrotation Yrotation Zrotation
								JOINT right_lowarm_twist
								{
									OFFSET	110.7	-3.89999	13.6
									CHANNELS 3  Xrotation Yrotation Zrotation
									JOINT right_hand
									{
										OFFSET	110.7	-3.89999	13.6
										CHANNELS 3  Xrotation Yrotation Zrotation
										JOINT right_ee
										{
											OFFSET	80.8	-5.10001	12.1
											CHANNELS 3  Xrotation Yrotation Zrotation
											End Site
											{
												OFFSET	1	0	0
											}
										}
									}
								}
							}
						}
					}
				}
			}
		}
	}
	JOINT left_hip
	{
		OFFSET	-82.8	-127.5	0.300001
		CHANNELS 3  Xrotation Yrotation Zrotation
		JOINT left_knee
		{
			OFFSET	-28.2	-396.7	2.2
			CHANNELS 3  Xrotation Yrotation Zrotation
			JOINT left_ankle
			{
				OFFSET	-11.7	-411.3	35.4
				CHANNELS 3  Xrotation Yrotation Zrotation
				JOINT left_toes
				{
					OFFSET	0	-60	-88.6
					CHANNELS 3  Xrotation Yrotation Zrotation
					JOINT left_foot_ee
					{
						OFFSET	-22.5	-16.5	-42.2
						CHANNELS 3  Xrotation Yrotation Zrotation
						End Site
						{
							OFFSET	1	0	0
						}
					}
				}
			}
		}
	}
	JOINT right_hip
	{
		OFFSET	82.8	-127.5	0.300001
		CHANNELS 3  Xrotation Yrotation Zrotation
		JOINT right_knee
		{
			OFFSET	28.2	-396.7	2.2
			CHANNELS 3  Xrotation Yrotation Zrotation
			JOINT right_ankle
			{
				OFFSET	11.7	-411.3	35.4
				CHANNELS 3  Xrotation Yrotation Zrotation
				JOINT right_toes
				{
					OFFSET	0	-60	-88.6
					CHANNELS 3  Xrotation Yrotation Zrotation
					JOINT right_foot_ee
					{
						OFFSET	22.5	-16.5	-42.2
						CHANNELS 3  Xrotation Yrotation Zrotation
						End Site
						{
							OFFSET	1	0	0
						}
					}
				}
			}
		}
	}
}
MOTION
Frames: 13
Frame Time: 0.02
3476.36813727 734.998 -1562.76682846 -20.1296736309 83.4555435327 15.4271205784 1.67954 0.300454 1.59588 1.68094 0.198309 1.61176 1.68664 -0.0972034 1.621 1.68301 0.159988 1.61601 -21.8441 6.52022 -5.80988 -22.1537 15.3389 -2.40994 -0.0 0.0 -0.0 2.81543 21.6056 6.52425 -13.1047 -26.7395 72.3184 0.4612 -12.8694 0.052015 -55.2104 -4.69382 4.92728 -2.42167 28.689 -1.87148 -0.0 0.0 -0.0 12.4333 22.3091 -24.7476 -11.4081 11.4912 -65.562 0.803671 21.7081 -0.154097 -33.5044 2.28832 -3.5562 5.42439 -29.9021 -46.4857 0.0 0.0 0.0 19.7334 3.99774 0.372959 -25.1553 0.19894 3.82428 30.094 26.5593 -4.15813 -5.38706 0.0 0.0 -0.0 0.0 -0.0 3.64651 -11.5414 8.27523 -22.6572 -0.254623 -3.44499 -20.6715 -27.1101 -3.27603 -3.94908 0.0 0.0 0.0 0.0 0.0 
3477.72738028 734.998 -1564.25758368 -17.7943823419 82.6257969542 13.0745626217 1.67954 0.300454 1.59588 1.68094 0.198309 1.61176 1.68664 -0.0972034 1.621 1.68301 0.159988 1.61601 -21.8441 6.52022 -5.80988 -22.1537 15.3389 -2.40994 -0.0 0.0 -0.0 2.81543 21.6056 6.52425 -13.1047 -26.7395 72.3184 0.4612 -12.8694 0.052015 -55.2104 -4.69382 4.92728 -2.42167 28.689 -1.87148 -0.0 0.0 -0.0 12.4333 22.3091 -24.7476 -11.4081 11.4912 -65.562 0.803671 21.7081 -0.154097 -33.5044 2.28832 -3.5562 5.42439 -29.9021 -46.4857 0.0 0.0 0.0 19.7334 3.99774 0.372959 -25.1553 0.19894 3.82428 30.094 26.5593 -4.15813 -5.38706 0.0 0.0 -0.0 0.0 -0.0 3.64651 -11.5414 8.27523 -22.6572 -0.254623 -3.44499 -20.6715 -27.1101 -3.27603 -3.94908 0.0 0.0 0.0 0.0 0.0 
3477.03884212 734.998 -1563.50815631 -18.9026258661 83.0458196943 14.1915184112 1.67954 0.300454 1.59588 1.68094 0.198309 1.61176 1.68664 -0.0972034 1.621 1.68301 0.159988 1.61601 -21.8441 6.52022 -5.80988 -22.1537 15.3389 -2.40994 -0.0 0.0 -0.0 2.81543 21.6056 6.52425 -13.1047 -26.7395 72.3184 0.4612 -12.8694 0.052015 -55.2104 -4.69382 4.92728 -2.42167 28.689 -1.87148 -0.0 0.0 -0.0 12.4333 22.3091 -24.7476 -11.4081 11.4912 -65.562 0.803671 21.7081 -0.154097 -33.5044 2.28832 -3.5562 5.42439 -29.9021 -46.4857 0.0 0.0 0.0 19.7334 3.99774 0.372959 -25.1553 0.19894 3.82428 30.094 26.5593 -4.15813 -5.38706 0.0 0.0 -0.0 0.0 -0.0 3.64651 -11.5414 8.27523 -22.6572 -0.254623 -3.44499 -20.6715 -27.1101 -3.27603 -3.94908 0.0 0.0 0.0 0.0 0.0 
3466.91152522 733.257 -1562.28514562 -22.8850175833 85.6571552646 18.1753014633 1.57538 0.359418 1.82958 1.57721 0.24229 1.84873 1.58526 -0.100205 1.86184 1.58047 0.195044 1.85431 -22.0303 5.83746 -5.46172 -22.2788 13.8408 -2.38871 -0.0 0.0 -0.0 2.56163 20.935 6.13515 -12.8909 -24.3542 72.6017 0.308855 -8.69886 0.023491 -53.5721 -4.49591 4.85656 -2.64024 28.7198 -3.03152 -0.0 0.0 -0.0 12.8037 24.0627 -25.4362 -9.21732 11.8178 -64.5015 0.986318 26.0393 -0.228071 -36.9579 2.6336 -3.83372 5.22476 -30.638 -44.7887 0.0 0.0 0.0 21.752 3.8123 -0.202665 -28.2089 0.10849 4.28413 26.9039 28.7583 -3.83325 -5.27256 0.0 0.0 -0.0 0.0 -0.0 1.40103 -11.9244 8.07276 -20.5525 -0.288661 -3.12385 -18.6887 -25.2587 -2.92936 -2.72095 0.0 0.0 0.0 0.0 0.0 
3457.6218242 734.976 -1561.86984019 -61.9420654182 88.8226305732 57.4863704668 1.06243 0.446558 1.86742 1.06431 0.326846 1.89204 1.07567 -0.0420403 1.91959 1.07062 0.261595 1.90215 -22.6935 6.02356 -3.73306 -22.9757 13.3402 -0.625102 -0.0 0.0 -0.0 3.11848 21.0514 6.94641 -14.2271 -23.4344 71.2386 0.206759 -5.84813 0.010561 -51.958 -4.30293 4.78137 -3.01663 28.5615 -5.14904 -0.0 0.0 -0.0 13.5536 23.0367 -27.2837 -8.26025 11.2034 -61.1113 1.30692 32.9178 -0.386122 -44.1578 3.4038 -4.34303 5.17088 -30.8662 -44.3431 0.0 0.0 0.0 24.7424 4.78047 -1.26045 -30.7195 0.0158366 4.65825 18.4769 28.928 -2.73275 -2.84857 0.0 0.0 -0.0 0.0 -0.0 -2.49635 -12.62 6.13767 -15.0793 -0.321786 -2.28505 -17.6733 -25.7092 -2.77523 -1.28426 0.0 0.0 0.0 0.0 0.0 
3444.48228731 732.059 -1560.17503505 -170.66737356 87.5967695651 165.955996027 0.619598 0.4724 2.04552 0.621861 0.341309 2.07141 0.635163 -0.0783825 2.09787 0.629111 0.253847 2.08394 -21.2822 5.7165 -4.67191 -21.5105 13.2934 -1.79111 -0.0 0.0 -0.0 3.60225 21.1179 7.64995 -16.0973 -22.6437 69.4281 0.184846 -5.23196 0.00844547 -48.5441 -3.90214 4.6046 -2.75371 28.8349 -3.5807 -0.0 0.0 -0.0 13.3497 22.5355 -26.8541 -2.79365 3.11344 -61.4774 1.59688 38.3428 -0.55523 -53.499 4.48712 -4.85327 4.25499 -30.9668 -37.4448 0.0 0.0 0.0 26.9911 3.21377 -1.70642 -31.3456 -0.00982032 4.7509 12.6606 28.3168 -1.90404 -2.18448 0.0 0.0 -0.0 0.0 -0.0 -5.79736 -9.06828 4.85562 -11.1699 -0.296361 -1.68588 -17.0206 -29.1309 -2.72623 -0.235821 0.0 0.0 0.0 0.0 0.0 
3442.98704935 732.059 -1557.85666645 -173.435807525 86.589834643 168.727887981 0.619598 0.4724 2.04552 0.621861 0.341309 2.07141 0.635163 -0.0783825 2.09787 0.629111 0.253847 2.08394 -21.2822 5.7165 -4.67191 -21.5105 13.2934 -1.79111 -0.0 0.0 -0.0 3.60225 21.1179 7.64995 -16.0973 -22.6437 69.4281 0.184846 -5.23196 0.00844547 -48.5441 -3.90214 4.6046 -2.75371 28.8349 -3.5807 -0.0 0.0 -0.0 13.3497 22.5355 -26.8541 -2.79365 3.11344 -61.4774 1.59688 38.3428 -0.55523 -53.499 4.48712 -4.85327 4.25499 -30.9668 -37.4448 0.0 0.0 0.0 26.9911 3.21377 -1.70642 -31.3456 -0.00982032 4.7509 12.6606 28.3168 -1.90404 -2.18448 0.0 0.0 -0.0 0.0 -0.0 -5.79736 -9.06828 4.85562 -11.1699 -0.296361 -1.68588 -17.0206 -29.1309 -2.72623 -0.235821 0.0 0.0 0.0 0.0 0.0 
3430.15473133 730.587 -1555.06466329 177.965141621 84.8722572864 177.371482734 0.194573 0.347807 2.14901 0.197118 0.210389 2.16677 0.206309 -0.24199 2.16347 0.199791 0.102643 2.17454 -20.3827 5.16221 -4.25714 -20.5546 12.0859 -1.74549 -0.0 0.0 -0.0 3.55758 21.2397 7.5863 -16.7075 -21.1142 69.4441 0.166298 -4.70946 0.00683834 -48.4014 -3.88563 4.59669 -2.60932 28.3868 -3.04035 -0.0 0.0 -0.0 13.4788 21.9575 -27.2082 -3.34552 7.41337 -59.077 1.94633 43.9497 -0.785439 -56.4197 4.84115 -4.97584 4.34999 -31.0779 -38.1236 0.0 0.0 0.0 29.0186 3.10693 -1.14119 -30.1332 0.0389429 4.57124 12.0897 28.2622 -1.82093 -1.90924 0.0 0.0 -0.0 0.0 -0.0 -8.3311 -8.16928 4.35357 -8.99234 -0.264493 -1.35329 -15.5234 -29.8173 -2.49507 0.613515 -0.0 -0.0 0.0 0.0 0.0 
3413.11697724 724.209 -1551.01586235 176.331286306 83.0294749947 178.995530499 -0.0457422 0.321262 2.22688 -0.0430009 0.178945 2.2428 -0.0345315 -0.297884 2.23013 -0.0414678 0.0579691 2.24918 -18.3365 5.06069 -4.32755 -18.4697 12.059 -2.05664 -0.0 0.0 -0.0 3.66252 21.4014 7.73961 -19.6786 -20.7663 68.1947 0.163458 -4.62939 0.00660716 -48.2355 -3.86644 4.58745 -2.52944 28.6616 -2.46561 -0.0 0.0 -0.0 13.7716 23.1506 -27.7837 -1.77701 7.31844 -58.0344 2.37039 49.574 -1.09474 -63.5554 5.72794 -5.19804 3.77195 -30.7845 -34.113 0.0 0.0 0.0 30.1428 2.43908 -1.19599 -26.7089 0.155986 4.05883 10.2761 23.4488 -1.51483 -5.03543 0.0 0.0 -0.0 0.0 -0.0 -10.1711 -9.60897 5.4526 -4.89147 -0.170265 -0.731159 -15.921 -29.7437 -2.55848 0.735751 -0.0 -0.0 0.0 0.0 0.0 
3412.92993806 724.209 -1550.61911543 176.403538481 82.8889128422 178.922729393 -0.0457422 0.321262 2.22688 -0.0430009 0.178945 2.2428 -0.0345315 -0.297884 2.23013 -0.0414678 0.0579691 2.24918 -18.3365 5.06069 -4.32755 -18.4697 12.059 -2.05664 -0.0 0.0 -0.0 3.66252 21.4014 7.73961 -19.6786 -20.7663 68.1947 0.163458 -4.62939 0.00660716 -48.2355 -3.86644 4.58745 -2.52944 28.6616 -2.46561 -0.0 0.0 -0.0 13.7716 23.1506 -27.7837 -1.77701 7.31844 -58.0344 2.37039 49.574 -1.09474 -63.5554 5.72794 -5.19804 3.77195 -30.7845 -34.113 0.0 0.0 0.0 30.1428 2.43908 -1.19599 -26.7089 0.155986 4.05883 10.2761 23.4488 -1.51483 -5.03543 0.0 0.0 -0.0 0.0 -0.0 -10.1711 -9.60897 5.4526 -4.89147 -0.170265 -0.731159 -15.921 -29.7437 -2.55848 0.735751 -0.0 -0.0 0.0 0.0 0.0 
3412.26783794 724.209 -1549.19391262 176.640445324 82.3852248332 178.683855154 -0.0457422 0.321262 2.22688 -0.0430009 0.178945 2.2428 -0.0345315 -0.297884 2.23013 -0.0414678 0.0579691 2.24918 -18.3365 5.06069 -4.32755 -18.4697 12.059 -2.05664 -0.0 0.0 -0.0 3.66252 21.4014 7.73961 -19.6786 -20.7663 68.1947 0.163458 -4.62939 0.00660716 -48.2355 -3.86644 4.58745 -2.52944 28.6616 -2.46561 -0.0 0.0 -0.0 13.7716 23.1506 -27.7837 -1.77701 7.31844 -58.0344 2.37039 49.574 -1.09474 -63.5554 5.72794 -5.19804 3.77195 -30.7845 -34.113 0.0 0.0 0.0 30.1428 2.43908 -1.19599 -26.7089 0.155986 4.05883 10.2761 23.4488 -1.51483 -5.03543 0.0 0.0 -0.0 0.0 -0.0 -10.1711 -9.60897 5.4526 -4.89147 -0.170265 -0.731159 -15.921 -29.7437 -2.55848 0.735751 -0.0 -0.0 0.0 0.0 0.0 
3397.47579537 721.277 -1540.34349575 -178.519114662 79.7322782916 173.446658169 -0.252683 0.246906 2.54441 -0.249086 0.0845518 2.55496 -0.243366 -0.46528 2.51368 -0.252178 -0.0625869 2.55559 -15.1519 4.87093 -7.53075 -15.1605 13.7696 -5.49112 -0.0 0.0 -0.0 3.74481 21.438 7.8588 -21.5416 -20.0997 67.1264 0.173173 -4.90323 0.0074144 -46.9894 -3.72325 4.51626 -1.84017 28.9977 1.39943 -0.0 0.0 -0.0 13.4995 20.9376 -27.3424 0.602491 5.66799 -58.1852 2.7609 53.817 -1.4014 -71.0954 6.68588 -5.31074 2.46957 -29.7077 -25.6853 0.0 0.0 0.0 30.1721 4.2129 0.78134 -17.3749 0.317652 2.63721 6.9965 19.7883 -1.02572 -8.36732 0.0 0.0 -0.0 0.0 -0.0 -11.9434 -7.76635 5.60321 -2.50335 -0.0949477 -0.372418 -16.3997 -29.6956 -2.63547 3.79436 -0.0 -0.0 0.0 0.0 0.0 
3389.19397029 719.361 -1537.06804536 -173.222737295 79.1422421539 168.081781253 -0.424277 0.181716 2.63137 -0.420425 0.0139665 2.6376 -0.417639 -0.559882 2.57757 -0.42688 -0.145925 2.6336 -10.7849 3.78086 -5.05318 -10.7508 10.4886 -3.91624 -0.0 0.0 -0.0 3.91653 20.8939 8.10703 -22.0119 -18.0578 67.3456 0.183181 -5.1851 0.00829437 -45.0351 -3.50185 4.39838 -1.12768 29.0849 5.25816 -0.0 0.0 -0.0 12.5841 22.3432 -25.0927 2.34261 5.2957 -59.7369 2.99292 55.9895 -1.59127 -78.9495 7.68841 -5.29266 1.6641 -29.3262 -20.8174 0.0 0.0 0.0 30.0693 6.35356 2.20634 -6.99982 0.224275 1.05019 -0.127137 21.31 0.0190922 -10.1751 0.0 0.0 -0.0 0.0 -0.0 -12.0569 -6.33888 6.00504 -0.718788 -0.028929 -0.106512 -15.1526 -29.5073 -2.42971 14.1797 -0.0 -0.0 0.0 0.0 0.0 
